<svg id="visual" viewBox="0 0 900 600" width="900" height="600" xmlns="http://www.w3.org/2000/svg" xmlns:xlink="http://www.w3.org/1999/xlink" version="1.1"><path d="M0 433L21.5 430C43 427 86 421 128.8 412.2C171.7 403.3 214.3 391.7 257.2 393.2C300 394.7 343 409.3 385.8 429.5C428.7 449.7 471.3 475.3 514.2 482.8C557 490.3 600 479.7 642.8 465C685.7 450.3 728.3 431.7 771.2 424.5C814 417.3 857 421.7 878.5 423.8L900 426L900 601L878.5 601C857 601 814 601 771.2 601C728.3 601 685.7 601 642.8 601C600 601 557 601 514.2 601C471.3 601 428.7 601 385.8 601C343 601 300 601 257.2 601C214.3 601 171.7 601 128.8 601C86 601 43 601 21.5 601L0 601Z" fill="#1A1A2E" stroke-linecap="round" stroke-linejoin="miter"></path></svg>